<?xml version="1.0" encoding="utf-8"?>
<!-- Generator: Adobe Illustrator 21.0.2, SVG Export Plug-In . SVG Version: 6.00 Build 0)  -->
<svg version="1.1" id="Layer_1" xmlns="http://www.w3.org/2000/svg" xmlns:xlink="http://www.w3.org/1999/xlink" x="0px" y="0px"
	 viewBox="0 0 100 100" style="enable-background:new 0 0 100 100;" xml:space="preserve">
<style type="text/css">
	.st0{fill:#FFFFFF;}
</style>
<path class="st0" d="M93.7,59.7l-11.6,3.1l-9.9-5.6V42.8l9.9-5.6l11.6,3.1l2.6-9.6l-8.8-2.3l2.3-8.8L80.2,17l-3.1,11.6l-9.9,5.6
	L55,27V15.8l8.5-8.5l-7.1-7L50,6.7l-6.4-6.4l-7.1,7l8.5,8.5V27l-12.4,7.2l-9.9-5.6L19.7,17l-9.5,2.6l2.3,8.8l-8.8,2.3l2.6,9.6
	l11.6-3.1l9.9,5.6v14.4l-9.9,5.6L6.3,59.7l-2.6,9.6l8.8,2.3l-2.3,8.8l9.6,2.6l3.1-11.6l9.9-5.6L45,73v11.2l-8.5,8.5l7.1,7l6.4-6.4
	l6.4,6.4l7-7L55,84.2V73l12.4-7.2l9.9,5.6L80.4,83l9.4-2.5l-2.3-8.8l8.8-2.3L93.7,59.7 M47.5,48.6l2.5-1.5l2.5,1.5v2.9L50,52.9
	l-2.5-1.5V48.6z"/>
</svg>
