<?xml version="1.0" encoding="utf-8"?>
<!-- Generator: Adobe Illustrator 21.0.2, SVG Export Plug-In . SVG Version: 6.00 Build 0)  -->
<svg version="1.1" id="Layer_1" xmlns="http://www.w3.org/2000/svg" xmlns:xlink="http://www.w3.org/1999/xlink" x="0px" y="0px"
	 viewBox="0 0 100 100" style="enable-background:new 0 0 100 100;" xml:space="preserve">
<style type="text/css">
	.st0{fill:#FFFFFF;}
</style>
<path class="st0" d="M71.2,19.7c7.1,0,13.7,2.2,19.2,5.9L85,38.8c-3.7-3.3-8.5-5.4-13.9-5.4c-11.4,0-20.6,9.2-20.6,20.6
	s9.2,20.6,20.6,20.6c4.7,0,9-1.6,12.5-4.2l5.2,13c-5.2,3.1-11.2,4.9-17.7,4.9c-19,0-34.3-15.4-34.3-34.3S52.2,19.7,71.2,19.7
	 M23.1,10.6c7.6,0,13.7,6.2,13.7,13.7s-6.2,13.7-13.7,13.7S9.3,31.9,9.3,24.3S15.5,10.6,23.1,10.6 M23.1,19.7
	c-2.5,0-4.6,2.1-4.6,4.6s2.1,4.6,4.6,4.6s4.6-2.1,4.6-4.6S25.6,19.7,23.1,19.7z"/>
</svg>
