<?xml version="1.0" encoding="utf-8"?>
<!-- Generator: Adobe Illustrator 21.0.2, SVG Export Plug-In . SVG Version: 6.00 Build 0)  -->
<svg version="1.1" id="Layer_1" xmlns="http://www.w3.org/2000/svg" xmlns:xlink="http://www.w3.org/1999/xlink" x="0px" y="0px"
	 viewBox="0 0 100 100" style="enable-background:new 0 0 100 100;" xml:space="preserve">
<style type="text/css">
	.st0{fill:#FFFFFF;}
</style>
<path class="st0" d="M50,89.9l16-21.3c-4.4-3.3-10-5.3-16-5.3s-11.5,2-16,5.3L50,89.9 M50,10.1c-18,0-34.6,5.9-47.9,16l8,10.6
	C21.2,28.3,35,23.4,50,23.4s28.8,5,39.9,13.3l8-10.6C84.6,16,68,10.1,50,10.1 M50,36.7c-12,0-23,3.9-31.9,10.6L26,58
	c6.7-5,15-8,24-8s17.3,3,24,8l8-10.6C73,40.6,62,36.7,50,36.7z"/>
</svg>
